<?xml version="1.0" encoding="UTF-8" standalone="no"?>
<!DOCTYPE svg PUBLIC "-//W3C//DTD SVG 1.1//EN"
 "http://www.w3.org/Graphics/SVG/1.1/DTD/svg11.dtd">
<!-- Generated by graphviz version 2.40.1 (20161225.0304)
 -->
<!-- Title: /home/workdir/assets/artifacts/tempDir/runtimes_visualization.svg Pages: 1 -->
<svg width="1220pt" height="982pt"
 viewBox="0.00 0.00 1220.00 981.80" xmlns="http://www.w3.org/2000/svg" xmlns:xlink="http://www.w3.org/1999/xlink">
<g id="graph0" class="graph" transform="scale(1 1) rotate(0) translate(468 967.4)">
<title>/home/workdir/assets/artifacts/tempDir/runtimes_visualization.svg</title>
<polygon fill="#ffffff" stroke="transparent" points="-468,14.4 -468,-967.4 752,-967.4 752,14.4 -468,14.4"/>
<g id="clust1" class="cluster">
<title>cluster_0</title>
<path fill="none" stroke="#375588" stroke-width="2" d="M20,-27C20,-27 210,-27 210,-27 216,-27 222,-33 222,-39 222,-39 222,-914 222,-914 222,-920 216,-926 210,-926 210,-926 20,-926 20,-926 14,-926 8,-920 8,-914 8,-914 8,-39 8,-39 8,-33 14,-27 20,-27"/>
</g>
<!-- Name : /block1/conv1/Conv
Info :  -->
<g id="node1" class="node">
<title>Name : /block1/conv1/Conv
Info : </title>
<path fill="#375588" stroke="#000000" d="M164.6667,-918C164.6667,-918 123.3333,-918 123.3333,-918 120.1667,-918 117,-914.8333 117,-911.6667 117,-911.6667 117,-905.3333 117,-905.3333 117,-902.1667 120.1667,-899 123.3333,-899 123.3333,-899 164.6667,-899 164.6667,-899 167.8333,-899 171,-902.1667 171,-905.3333 171,-905.3333 171,-911.6667 171,-911.6667 171,-914.8333 167.8333,-918 164.6667,-918"/>
<text text-anchor="middle" x="144" y="-906" font-family="Times,serif" font-size="10.00" fill="#ffffff">0:Conv</text>
</g>
<!-- Name : /block1/gate/Relu
Info :  -->
<g id="node2" class="node">
<title>Name : /block1/gate/Relu
Info : </title>
<path fill="#375588" stroke="#000000" d="M164.6667,-891C164.6667,-891 123.3333,-891 123.3333,-891 120.1667,-891 117,-887.8333 117,-884.6667 117,-884.6667 117,-878.3333 117,-878.3333 117,-875.1667 120.1667,-872 123.3333,-872 123.3333,-872 164.6667,-872 164.6667,-872 167.8333,-872 171,-875.1667 171,-878.3333 171,-878.3333 171,-884.6667 171,-884.6667 171,-887.8333 167.8333,-891 164.6667,-891"/>
<text text-anchor="middle" x="144" y="-879" font-family="Times,serif" font-size="10.00" fill="#ffffff">1:Relu</text>
</g>
<!-- Name : /block1/conv1/Conv
Info : &#45;&gt;Name : /block1/gate/Relu
Info :  -->
<g id="edge1" class="edge">
<title>Name : /block1/conv1/Conv
Info : &#45;&gt;Name : /block1/gate/Relu
Info : </title>
<path fill="none" stroke="#000000" stroke-width=".7" d="M144,-898.7524C144,-897.9971 144,-897.2248 144,-896.4461"/>
<polygon fill="#000000" stroke="#000000" stroke-width=".7" points="144,-891.324 146.2501,-896.324 144,-893.824 144.0001,-896.324 144.0001,-896.324 144.0001,-896.324 144,-893.824 141.7501,-896.324 144,-891.324 144,-891.324"/>
</g>
<!-- Name : /block1/conv2/Conv
Info :  -->
<g id="node3" class="node">
<title>Name : /block1/conv2/Conv
Info : </title>
<path fill="#375588" stroke="#000000" d="M164.6667,-864C164.6667,-864 123.3333,-864 123.3333,-864 120.1667,-864 117,-860.8333 117,-857.6667 117,-857.6667 117,-851.3333 117,-851.3333 117,-848.1667 120.1667,-845 123.3333,-845 123.3333,-845 164.6667,-845 164.6667,-845 167.8333,-845 171,-848.1667 171,-851.3333 171,-851.3333 171,-857.6667 171,-857.6667 171,-860.8333 167.8333,-864 164.6667,-864"/>
<text text-anchor="middle" x="144" y="-852" font-family="Times,serif" font-size="10.00" fill="#ffffff">2:Conv</text>
</g>
<!-- Name : /block1/gate/Relu
Info : &#45;&gt;Name : /block1/conv2/Conv
Info :  -->
<g id="edge2" class="edge">
<title>Name : /block1/gate/Relu
Info : &#45;&gt;Name : /block1/conv2/Conv
Info : </title>
<path fill="none" stroke="#000000" stroke-width=".7" d="M144,-871.7524C144,-870.9971 144,-870.2248 144,-869.4461"/>
<polygon fill="#000000" stroke="#000000" stroke-width=".7" points="144,-864.324 146.2501,-869.324 144,-866.824 144.0001,-869.324 144.0001,-869.324 144.0001,-869.324 144,-866.824 141.7501,-869.324 144,-864.324 144,-864.324"/>
</g>
<!-- Name : /block1/gate_1/Relu
Info :  -->
<g id="node4" class="node">
<title>Name : /block1/gate_1/Relu
Info : </title>
<path fill="#375588" stroke="#000000" d="M164.6667,-837C164.6667,-837 123.3333,-837 123.3333,-837 120.1667,-837 117,-833.8333 117,-830.6667 117,-830.6667 117,-824.3333 117,-824.3333 117,-821.1667 120.1667,-818 123.3333,-818 123.3333,-818 164.6667,-818 164.6667,-818 167.8333,-818 171,-821.1667 171,-824.3333 171,-824.3333 171,-830.6667 171,-830.6667 171,-833.8333 167.8333,-837 164.6667,-837"/>
<text text-anchor="middle" x="144" y="-825" font-family="Times,serif" font-size="10.00" fill="#ffffff">3:Relu</text>
</g>
<!-- Name : /block1/conv2/Conv
Info : &#45;&gt;Name : /block1/gate_1/Relu
Info :  -->
<g id="edge3" class="edge">
<title>Name : /block1/conv2/Conv
Info : &#45;&gt;Name : /block1/gate_1/Relu
Info : </title>
<path fill="none" stroke="#000000" stroke-width=".7" d="M144,-844.7524C144,-843.9971 144,-843.2248 144,-842.4461"/>
<polygon fill="#000000" stroke="#000000" stroke-width=".7" points="144,-837.324 146.2501,-842.324 144,-839.824 144.0001,-842.324 144.0001,-842.324 144.0001,-842.324 144,-839.824 141.7501,-842.324 144,-837.324 144,-837.324"/>
</g>
<!-- Name : /pool2/MaxPool
Info :  -->
<g id="node5" class="node">
<title>Name : /pool2/MaxPool
Info : </title>
<path fill="#375588" stroke="#000000" d="M140.6667,-810C140.6667,-810 85.3333,-810 85.3333,-810 82.1667,-810 79,-806.8333 79,-803.6667 79,-803.6667 79,-797.3333 79,-797.3333 79,-794.1667 82.1667,-791 85.3333,-791 85.3333,-791 140.6667,-791 140.6667,-791 143.8333,-791 147,-794.1667 147,-797.3333 147,-797.3333 147,-803.6667 147,-803.6667 147,-806.8333 143.8333,-810 140.6667,-810"/>
<text text-anchor="middle" x="113" y="-798" font-family="Times,serif" font-size="10.00" fill="#ffffff">4:MaxPool</text>
</g>
<!-- Name : /block1/gate_1/Relu
Info : &#45;&gt;Name : /pool2/MaxPool
Info :  -->
<g id="edge4" class="edge">
<title>Name : /block1/gate_1/Relu
Info : &#45;&gt;Name : /pool2/MaxPool
Info : </title>
<path fill="none" stroke="#000000" stroke-width=".7" d="M132.8083,-817.7524C131.3341,-816.4684 129.8035,-815.1353 128.2758,-813.8047"/>
<polygon fill="#000000" stroke="#000000" stroke-width=".7" points="124.2794,-810.324 129.5276,-811.9112 126.1646,-811.966 128.0498,-813.6079 128.0498,-813.6079 128.0498,-813.6079 126.1646,-811.966 126.5721,-815.3046 124.2794,-810.324 124.2794,-810.324"/>
</g>
<!-- Name : /conv1/Conv
Info :  -->
<g id="node40" class="node">
<title>Name : /conv1/Conv
Info : </title>
<path fill="#375588" stroke="#000000" d="M207.6667,-783C207.6667,-783 164.3333,-783 164.3333,-783 161.1667,-783 158,-779.8333 158,-776.6667 158,-776.6667 158,-770.3333 158,-770.3333 158,-767.1667 161.1667,-764 164.3333,-764 164.3333,-764 207.6667,-764 207.6667,-764 210.8333,-764 214,-767.1667 214,-770.3333 214,-770.3333 214,-776.6667 214,-776.6667 214,-779.8333 210.8333,-783 207.6667,-783"/>
<text text-anchor="middle" x="186" y="-771" font-family="Times,serif" font-size="10.00" fill="#ffffff">39:Conv</text>
</g>
<!-- Name : /block1/gate_1/Relu
Info : &#45;&gt;Name : /conv1/Conv
Info :  -->
<g id="edge5" class="edge">
<title>Name : /block1/gate_1/Relu
Info : &#45;&gt;Name : /conv1/Conv
Info : </title>
<path fill="none" stroke="#000000" stroke-width=".7" d="M151.7034,-817.5956C158.2751,-809.1463 167.798,-796.9026 175.1426,-787.4596"/>
<polygon fill="#000000" stroke="#000000" stroke-width=".7" points="178.3454,-783.3416 177.0517,-788.6698 176.8105,-785.315 175.2756,-787.2884 175.2756,-787.2884 175.2756,-787.2884 176.8105,-785.315 173.4996,-785.907 178.3454,-783.3416 178.3454,-783.3416"/>
</g>
<!-- Name : /block2/downsample/Conv
Info :  -->
<g id="node6" class="node">
<title>Name : /block2/downsample/Conv
Info : </title>
<path fill="#375588" stroke="#000000" d="M69.6667,-756C69.6667,-756 28.3333,-756 28.3333,-756 25.1667,-756 22,-752.8333 22,-749.6667 22,-749.6667 22,-743.3333 22,-743.3333 22,-740.1667 25.1667,-737 28.3333,-737 28.3333,-737 69.6667,-737 69.6667,-737 72.8333,-737 76,-740.1667 76,-743.3333 76,-743.3333 76,-749.6667 76,-749.6667 76,-752.8333 72.8333,-756 69.6667,-756"/>
<text text-anchor="middle" x="49" y="-744" font-family="Times,serif" font-size="10.00" fill="#ffffff">5:Conv</text>
</g>
<!-- Name : /pool2/MaxPool
Info : &#45;&gt;Name : /block2/downsample/Conv
Info :  -->
<g id="edge6" class="edge">
<title>Name : /pool2/MaxPool
Info : &#45;&gt;Name : /block2/downsample/Conv
Info : </title>
<path fill="none" stroke="#000000" stroke-width=".7" d="M89.1942,-790.8821C84.9174,-788.6229 80.6612,-785.9877 77,-783 69.3137,-776.7276 62.4941,-767.9484 57.5098,-760.5721"/>
<polygon fill="#000000" stroke="#000000" stroke-width=".7" points="54.6522,-756.1955 59.2698,-759.152 56.019,-758.2888 57.3858,-760.3821 57.3858,-760.3821 57.3858,-760.3821 56.019,-758.2888 55.5018,-761.6122 54.6522,-756.1955 54.6522,-756.1955"/>
</g>
<!-- Name : /block2/conv1/Conv
Info :  -->
<g id="node7" class="node">
<title>Name : /block2/conv1/Conv
Info : </title>
<path fill="#375588" stroke="#000000" d="M133.6667,-783C133.6667,-783 92.3333,-783 92.3333,-783 89.1667,-783 86,-779.8333 86,-776.6667 86,-776.6667 86,-770.3333 86,-770.3333 86,-767.1667 89.1667,-764 92.3333,-764 92.3333,-764 133.6667,-764 133.6667,-764 136.8333,-764 140,-767.1667 140,-770.3333 140,-770.3333 140,-776.6667 140,-776.6667 140,-779.8333 136.8333,-783 133.6667,-783"/>
<text text-anchor="middle" x="113" y="-771" font-family="Times,serif" font-size="10.00" fill="#ffffff">6:Conv</text>
</g>
<!-- Name : /pool2/MaxPool
Info : &#45;&gt;Name : /block2/conv1/Conv
Info :  -->
<g id="edge7" class="edge">
<title>Name : /pool2/MaxPool
Info : &#45;&gt;Name : /block2/conv1/Conv
Info : </title>
<path fill="none" stroke="#000000" stroke-width=".7" d="M113,-790.7524C113,-789.9971 113,-789.2248 113,-788.4461"/>
<polygon fill="#000000" stroke="#000000" stroke-width=".7" points="113,-783.324 115.2501,-788.324 113,-785.824 113.0001,-788.324 113.0001,-788.324 113.0001,-788.324 113,-785.824 110.7501,-788.324 113,-783.324 113,-783.324"/>
</g>
<!-- Name : /block2/Add
Info :  -->
<g id="node10" class="node">
<title>Name : /block2/Add
Info : </title>
<path fill="#375588" stroke="#000000" d="M123.6667,-702C123.6667,-702 82.3333,-702 82.3333,-702 79.1667,-702 76,-698.8333 76,-695.6667 76,-695.6667 76,-689.3333 76,-689.3333 76,-686.1667 79.1667,-683 82.3333,-683 82.3333,-683 123.6667,-683 123.6667,-683 126.8333,-683 130,-686.1667 130,-689.3333 130,-689.3333 130,-695.6667 130,-695.6667 130,-698.8333 126.8333,-702 123.6667,-702"/>
<text text-anchor="middle" x="103" y="-690" font-family="Times,serif" font-size="10.00" fill="#ffffff">9:Add</text>
</g>
<!-- Name : /block2/downsample/Conv
Info : &#45;&gt;Name : /block2/Add
Info :  -->
<g id="edge8" class="edge">
<title>Name : /block2/downsample/Conv
Info : &#45;&gt;Name : /block2/Add
Info : </title>
<path fill="none" stroke="#000000" stroke-width=".7" d="M54.5014,-736.7067C59.2361,-728.8588 66.616,-717.8927 75,-710 76.8339,-708.2736 78.8631,-706.6242 80.9665,-705.0764"/>
<polygon fill="#000000" stroke="#000000" stroke-width=".7" points="85.3496,-702.0497 82.5138,-706.7424 83.2924,-703.4703 81.2352,-704.8909 81.2352,-704.8909 81.2352,-704.8909 83.2924,-703.4703 79.9567,-703.0394 85.3496,-702.0497 85.3496,-702.0497"/>
</g>
<!-- Name : /block2/gate/Relu
Info :  -->
<g id="node8" class="node">
<title>Name : /block2/gate/Relu
Info : </title>
<path fill="#375588" stroke="#000000" d="M141.6667,-756C141.6667,-756 100.3333,-756 100.3333,-756 97.1667,-756 94,-752.8333 94,-749.6667 94,-749.6667 94,-743.3333 94,-743.3333 94,-740.1667 97.1667,-737 100.3333,-737 100.3333,-737 141.6667,-737 141.6667,-737 144.8333,-737 148,-740.1667 148,-743.3333 148,-743.3333 148,-749.6667 148,-749.6667 148,-752.8333 144.8333,-756 141.6667,-756"/>
<text text-anchor="middle" x="121" y="-744" font-family="Times,serif" font-size="10.00" fill="#ffffff">7:Relu</text>
</g>
<!-- Name : /block2/conv1/Conv
Info : &#45;&gt;Name : /block2/gate/Relu
Info :  -->
<g id="edge9" class="edge">
<title>Name : /block2/conv1/Conv
Info : &#45;&gt;Name : /block2/gate/Relu
Info : </title>
<path fill="none" stroke="#000000" stroke-width=".7" d="M115.8882,-763.7524C116.112,-762.9971 116.3408,-762.2248 116.5715,-761.4461"/>
<polygon fill="#000000" stroke="#000000" stroke-width=".7" points="118.0892,-756.324 118.826,-761.7572 117.3789,-758.721 116.6687,-761.118 116.6687,-761.118 116.6687,-761.118 117.3789,-758.721 114.5114,-760.4788 118.0892,-756.324 118.0892,-756.324"/>
</g>
<!-- Name : /block2/conv2/Conv
Info :  -->
<g id="node9" class="node">
<title>Name : /block2/conv2/Conv
Info : </title>
<path fill="#375588" stroke="#000000" d="M131.6667,-729C131.6667,-729 90.3333,-729 90.3333,-729 87.1667,-729 84,-725.8333 84,-722.6667 84,-722.6667 84,-716.3333 84,-716.3333 84,-713.1667 87.1667,-710 90.3333,-710 90.3333,-710 131.6667,-710 131.6667,-710 134.8333,-710 138,-713.1667 138,-716.3333 138,-716.3333 138,-722.6667 138,-722.6667 138,-725.8333 134.8333,-729 131.6667,-729"/>
<text text-anchor="middle" x="111" y="-717" font-family="Times,serif" font-size="10.00" fill="#ffffff">8:Conv</text>
</g>
<!-- Name : /block2/gate/Relu
Info : &#45;&gt;Name : /block2/conv2/Conv
Info :  -->
<g id="edge10" class="edge">
<title>Name : /block2/gate/Relu
Info : &#45;&gt;Name : /block2/conv2/Conv
Info : </title>
<path fill="none" stroke="#000000" stroke-width=".7" d="M117.3898,-736.7524C117.11,-735.9971 116.824,-735.2248 116.5356,-734.4461"/>
<polygon fill="#000000" stroke="#000000" stroke-width=".7" points="114.6385,-729.324 118.4851,-733.2313 115.5068,-731.6684 116.3751,-734.0127 116.3751,-734.0127 116.3751,-734.0127 115.5068,-731.6684 114.2652,-734.7942 114.6385,-729.324 114.6385,-729.324"/>
</g>
<!-- Name : /block2/conv2/Conv
Info : &#45;&gt;Name : /block2/Add
Info :  -->
<g id="edge11" class="edge">
<title>Name : /block2/conv2/Conv
Info : &#45;&gt;Name : /block2/Add
Info : </title>
<path fill="none" stroke="#000000" stroke-width=".7" d="M108.1118,-709.7524C107.888,-708.9971 107.6592,-708.2248 107.4285,-707.4461"/>
<polygon fill="#000000" stroke="#000000" stroke-width=".7" points="105.9108,-702.324 109.4886,-706.4788 106.6211,-704.721 107.3313,-707.118 107.3313,-707.118 107.3313,-707.118 106.6211,-704.721 105.174,-707.7572 105.9108,-702.324 105.9108,-702.324"/>
</g>
<!-- Name : /block2/gate_1/Relu
Info :  -->
<g id="node11" class="node">
<title>Name : /block2/gate_1/Relu
Info : </title>
<path fill="#375588" stroke="#000000" d="M123.6667,-675C123.6667,-675 82.3333,-675 82.3333,-675 79.1667,-675 76,-671.8333 76,-668.6667 76,-668.6667 76,-662.3333 76,-662.3333 76,-659.1667 79.1667,-656 82.3333,-656 82.3333,-656 123.6667,-656 123.6667,-656 126.8333,-656 130,-659.1667 130,-662.3333 130,-662.3333 130,-668.6667 130,-668.6667 130,-671.8333 126.8333,-675 123.6667,-675"/>
<text text-anchor="middle" x="103" y="-663" font-family="Times,serif" font-size="10.00" fill="#ffffff">10:Relu</text>
</g>
<!-- Name : /block2/Add
Info : &#45;&gt;Name : /block2/gate_1/Relu
Info :  -->
<g id="edge12" class="edge">
<title>Name : /block2/Add
Info : &#45;&gt;Name : /block2/gate_1/Relu
Info : </title>
<path fill="none" stroke="#000000" stroke-width=".7" d="M103,-682.7524C103,-681.9971 103,-681.2248 103,-680.4461"/>
<polygon fill="#000000" stroke="#000000" stroke-width=".7" points="103,-675.324 105.2501,-680.324 103,-677.824 103.0001,-680.324 103.0001,-680.324 103.0001,-680.324 103,-677.824 100.7501,-680.324 103,-675.324 103,-675.324"/>
</g>
<!-- Name : /pool4_1/MaxPool
Info :  -->
<g id="node12" class="node">
<title>Name : /pool4_1/MaxPool
Info : </title>
<path fill="#375588" stroke="#000000" d="M118.6667,-648C118.6667,-648 57.3333,-648 57.3333,-648 54.1667,-648 51,-644.8333 51,-641.6667 51,-641.6667 51,-635.3333 51,-635.3333 51,-632.1667 54.1667,-629 57.3333,-629 57.3333,-629 118.6667,-629 118.6667,-629 121.8333,-629 125,-632.1667 125,-635.3333 125,-635.3333 125,-641.6667 125,-641.6667 125,-644.8333 121.8333,-648 118.6667,-648"/>
<text text-anchor="middle" x="88" y="-636" font-family="Times,serif" font-size="10.00" fill="#ffffff">11:MaxPool</text>
</g>
<!-- Name : /block2/gate_1/Relu
Info : &#45;&gt;Name : /pool4_1/MaxPool
Info :  -->
<g id="edge13" class="edge">
<title>Name : /block2/gate_1/Relu
Info : &#45;&gt;Name : /pool4_1/MaxPool
Info : </title>
<path fill="none" stroke="#000000" stroke-width=".7" d="M97.5847,-655.7524C97.0812,-654.8461 96.564,-653.9153 96.0434,-652.9781"/>
<polygon fill="#000000" stroke="#000000" stroke-width=".7" points="93.4578,-648.324 97.8529,-651.6021 94.6719,-650.5094 95.886,-652.6948 95.886,-652.6948 95.886,-652.6948 94.6719,-650.5094 93.9192,-653.7875 93.4578,-648.324 93.4578,-648.324"/>
</g>
<!-- Name : /conv2/Conv
Info :  -->
<g id="node37" class="node">
<title>Name : /conv2/Conv
Info : </title>
<path fill="#375588" stroke="#000000" d="M185.6667,-621C185.6667,-621 142.3333,-621 142.3333,-621 139.1667,-621 136,-617.8333 136,-614.6667 136,-614.6667 136,-608.3333 136,-608.3333 136,-605.1667 139.1667,-602 142.3333,-602 142.3333,-602 185.6667,-602 185.6667,-602 188.8333,-602 192,-605.1667 192,-608.3333 192,-608.3333 192,-614.6667 192,-614.6667 192,-617.8333 188.8333,-621 185.6667,-621"/>
<text text-anchor="middle" x="164" y="-609" font-family="Times,serif" font-size="10.00" fill="#ffffff">36:Conv</text>
</g>
<!-- Name : /block2/gate_1/Relu
Info : &#45;&gt;Name : /conv2/Conv
Info :  -->
<g id="edge14" class="edge">
<title>Name : /block2/gate_1/Relu
Info : &#45;&gt;Name : /conv2/Conv
Info : </title>
<path fill="none" stroke="#000000" stroke-width=".7" d="M122.7411,-655.8083C126.6488,-653.4971 130.592,-650.8611 134,-648 141.8037,-641.4487 149.0977,-632.6613 154.5392,-625.3504"/>
<polygon fill="#000000" stroke="#000000" stroke-width=".7" points="157.6759,-621.0223 156.5636,-626.3912 156.2088,-623.0465 154.7418,-625.0708 154.7418,-625.0708 154.7418,-625.0708 156.2088,-623.0465 152.9199,-623.7504 157.6759,-621.0223 157.6759,-621.0223"/>
</g>
<!-- Name : /pool4_2/MaxPool
Info :  -->
<g id="node13" class="node">
<title>Name : /pool4_2/MaxPool
Info : </title>
<path fill="#375588" stroke="#000000" d="M111.6667,-621C111.6667,-621 50.3333,-621 50.3333,-621 47.1667,-621 44,-617.8333 44,-614.6667 44,-614.6667 44,-608.3333 44,-608.3333 44,-605.1667 47.1667,-602 50.3333,-602 50.3333,-602 111.6667,-602 111.6667,-602 114.8333,-602 118,-605.1667 118,-608.3333 118,-608.3333 118,-614.6667 118,-614.6667 118,-617.8333 114.8333,-621 111.6667,-621"/>
<text text-anchor="middle" x="81" y="-609" font-family="Times,serif" font-size="10.00" fill="#ffffff">12:MaxPool</text>
</g>
<!-- Name : /pool4_1/MaxPool
Info : &#45;&gt;Name : /pool4_2/MaxPool
Info :  -->
<g id="edge15" class="edge">
<title>Name : /pool4_1/MaxPool
Info : &#45;&gt;Name : /pool4_2/MaxPool
Info : </title>
<path fill="none" stroke="#000000" stroke-width=".7" d="M85.4728,-628.7524C85.277,-627.9971 85.0768,-627.2248 84.8749,-626.4461"/>
<polygon fill="#000000" stroke="#000000" stroke-width=".7" points="83.547,-621.324 86.9798,-625.5993 84.1744,-623.744 84.8018,-626.164 84.8018,-626.164 84.8018,-626.164 84.1744,-623.744 82.6238,-626.7287 83.547,-621.324 83.547,-621.324"/>
</g>
<!-- Name : /block3/downsample/Conv
Info :  -->
<g id="node14" class="node">
<title>Name : /block3/downsample/Conv
Info : </title>
<path fill="#375588" stroke="#000000" d="M65.6667,-567C65.6667,-567 22.3333,-567 22.3333,-567 19.1667,-567 16,-563.8333 16,-560.6667 16,-560.6667 16,-554.3333 16,-554.3333 16,-551.1667 19.1667,-548 22.3333,-548 22.3333,-548 65.6667,-548 65.6667,-548 68.8333,-548 72,-551.1667 72,-554.3333 72,-554.3333 72,-560.6667 72,-560.6667 72,-563.8333 68.8333,-567 65.6667,-567"/>
<text text-anchor="middle" x="44" y="-555" font-family="Times,serif" font-size="10.00" fill="#ffffff">13:Conv</text>
</g>
<!-- Name : /pool4_2/MaxPool
Info : &#45;&gt;Name : /block3/downsample/Conv
Info :  -->
<g id="edge16" class="edge">
<title>Name : /pool4_2/MaxPool
Info : &#45;&gt;Name : /block3/downsample/Conv
Info : </title>
<path fill="none" stroke="#000000" stroke-width=".7" d="M62.0556,-601.807C59.0257,-599.5801 56.1767,-596.9756 54,-594 49.425,-587.7459 46.9429,-579.5075 45.5964,-572.4405"/>
<polygon fill="#000000" stroke="#000000" stroke-width=".7" points="44.7722,-567.317 47.7879,-571.8961 45.1693,-569.7852 45.5664,-572.2535 45.5664,-572.2535 45.5664,-572.2535 45.1693,-569.7852 43.345,-572.6109 44.7722,-567.317 44.7722,-567.317"/>
</g>
<!-- Name : /block3/conv1/Conv
Info :  -->
<g id="node15" class="node">
<title>Name : /block3/conv1/Conv
Info : </title>
<path fill="#375588" stroke="#000000" d="M112.6667,-594C112.6667,-594 69.3333,-594 69.3333,-594 66.1667,-594 63,-590.8333 63,-587.6667 63,-587.6667 63,-581.3333 63,-581.3333 63,-578.1667 66.1667,-575 69.3333,-575 69.3333,-575 112.6667,-575 112.6667,-575 115.8333,-575 119,-578.1667 119,-581.3333 119,-581.3333 119,-587.6667 119,-587.6667 119,-590.8333 115.8333,-594 112.6667,-594"/>
<text text-anchor="middle" x="91" y="-582" font-family="Times,serif" font-size="10.00" fill="#ffffff">14:Conv</text>
</g>
<!-- Name : /pool4_2/MaxPool
Info : &#45;&gt;Name : /block3/conv1/Conv
Info :  -->
<g id="edge17" class="edge">
<title>Name : /pool4_2/MaxPool
Info : &#45;&gt;Name : /block3/conv1/Conv
Info : </title>
<path fill="none" stroke="#000000" stroke-width=".7" d="M84.6102,-601.7524C84.89,-600.9971 85.176,-600.2248 85.4644,-599.4461"/>
<polygon fill="#000000" stroke="#000000" stroke-width=".7" points="87.3615,-594.324 87.7348,-599.7942 86.4932,-596.6684 85.6249,-599.0127 85.6249,-599.0127 85.6249,-599.0127 86.4932,-596.6684 83.5149,-598.2313 87.3615,-594.324 87.3615,-594.324"/>
</g>
<!-- Name : /block3/Add
Info :  -->
<g id="node18" class="node">
<title>Name : /block3/Add
Info : </title>
<path fill="#375588" stroke="#000000" d="M90.6667,-513C90.6667,-513 49.3333,-513 49.3333,-513 46.1667,-513 43,-509.8333 43,-506.6667 43,-506.6667 43,-500.3333 43,-500.3333 43,-497.1667 46.1667,-494 49.3333,-494 49.3333,-494 90.6667,-494 90.6667,-494 93.8333,-494 97,-497.1667 97,-500.3333 97,-500.3333 97,-506.6667 97,-506.6667 97,-509.8333 93.8333,-513 90.6667,-513"/>
<text text-anchor="middle" x="70" y="-501" font-family="Times,serif" font-size="10.00" fill="#ffffff">17:Add</text>
</g>
<!-- Name : /block3/downsample/Conv
Info : &#45;&gt;Name : /block3/Add
Info :  -->
<g id="edge18" class="edge">
<title>Name : /block3/downsample/Conv
Info : &#45;&gt;Name : /block3/Add
Info : </title>
<path fill="none" stroke="#000000" stroke-width=".7" d="M42.0098,-547.9036C40.9142,-540.17 40.5537,-529.2615 45,-521 45.8286,-519.4605 46.8589,-518.0271 48.0253,-516.698"/>
<polygon fill="#000000" stroke="#000000" stroke-width=".7" points="51.8667,-513.022 49.8098,-518.1045 50.0604,-514.7505 48.2542,-516.4789 48.2542,-516.4789 48.2542,-516.4789 50.0604,-514.7505 46.6986,-514.8533 51.8667,-513.022 51.8667,-513.022"/>
</g>
<!-- Name : /block3/gate/Relu
Info :  -->
<g id="node16" class="node">
<title>Name : /block3/gate/Relu
Info : </title>
<path fill="#375588" stroke="#000000" d="M137.6667,-567C137.6667,-567 96.3333,-567 96.3333,-567 93.1667,-567 90,-563.8333 90,-560.6667 90,-560.6667 90,-554.3333 90,-554.3333 90,-551.1667 93.1667,-548 96.3333,-548 96.3333,-548 137.6667,-548 137.6667,-548 140.8333,-548 144,-551.1667 144,-554.3333 144,-554.3333 144,-560.6667 144,-560.6667 144,-563.8333 140.8333,-567 137.6667,-567"/>
<text text-anchor="middle" x="117" y="-555" font-family="Times,serif" font-size="10.00" fill="#ffffff">15:Relu</text>
</g>
<!-- Name : /block3/conv1/Conv
Info : &#45;&gt;Name : /block3/gate/Relu
Info :  -->
<g id="edge19" class="edge">
<title>Name : /block3/conv1/Conv
Info : &#45;&gt;Name : /block3/gate/Relu
Info : </title>
<path fill="none" stroke="#000000" stroke-width=".7" d="M100.3866,-574.7524C101.5503,-573.544 102.7559,-572.292 103.9619,-571.0396"/>
<polygon fill="#000000" stroke="#000000" stroke-width=".7" points="107.5399,-567.324 105.6923,-572.4863 105.8057,-569.1248 104.0716,-570.9256 104.0716,-570.9256 104.0716,-570.9256 105.8057,-569.1248 102.4509,-569.3649 107.5399,-567.324 107.5399,-567.324"/>
</g>
<!-- Name : /block3/conv2/Conv
Info :  -->
<g id="node17" class="node">
<title>Name : /block3/conv2/Conv
Info : </title>
<path fill="#375588" stroke="#000000" d="M103.6667,-540C103.6667,-540 60.3333,-540 60.3333,-540 57.1667,-540 54,-536.8333 54,-533.6667 54,-533.6667 54,-527.3333 54,-527.3333 54,-524.1667 57.1667,-521 60.3333,-521 60.3333,-521 103.6667,-521 103.6667,-521 106.8333,-521 110,-524.1667 110,-527.3333 110,-527.3333 110,-533.6667 110,-533.6667 110,-536.8333 106.8333,-540 103.6667,-540"/>
<text text-anchor="middle" x="82" y="-528" font-family="Times,serif" font-size="10.00" fill="#ffffff">16:Conv</text>
</g>
<!-- Name : /block3/gate/Relu
Info : &#45;&gt;Name : /block3/conv2/Conv
Info :  -->
<g id="edge20" class="edge">
<title>Name : /block3/gate/Relu
Info : &#45;&gt;Name : /block3/conv2/Conv
Info : </title>
<path fill="none" stroke="#000000" stroke-width=".7" d="M104.3642,-547.7524C102.6019,-546.3929 100.7682,-544.9783 98.9425,-543.5699"/>
<polygon fill="#000000" stroke="#000000" stroke-width=".7" points="94.7348,-540.324 100.0681,-541.5965 96.7143,-541.851 98.6937,-543.3781 98.6937,-543.3781 98.6937,-543.3781 96.7143,-541.851 97.3194,-545.1596 94.7348,-540.324 94.7348,-540.324"/>
</g>
<!-- Name : /block3/conv2/Conv
Info : &#45;&gt;Name : /block3/Add
Info :  -->
<g id="edge21" class="edge">
<title>Name : /block3/conv2/Conv
Info : &#45;&gt;Name : /block3/Add
Info : </title>
<path fill="none" stroke="#000000" stroke-width=".7" d="M77.6677,-520.7524C77.2649,-519.8461 76.8512,-518.9153 76.4347,-517.9781"/>
<polygon fill="#000000" stroke="#000000" stroke-width=".7" points="74.3662,-513.324 78.4531,-516.9792 75.3816,-515.6085 76.397,-517.8931 76.397,-517.8931 76.397,-517.8931 75.3816,-515.6085 74.3409,-518.8069 74.3662,-513.324 74.3662,-513.324"/>
</g>
<!-- Name : /block3/gate_1/Relu
Info :  -->
<g id="node19" class="node">
<title>Name : /block3/gate_1/Relu
Info : </title>
<path fill="#375588" stroke="#000000" d="M90.6667,-486C90.6667,-486 49.3333,-486 49.3333,-486 46.1667,-486 43,-482.8333 43,-479.6667 43,-479.6667 43,-473.3333 43,-473.3333 43,-470.1667 46.1667,-467 49.3333,-467 49.3333,-467 90.6667,-467 90.6667,-467 93.8333,-467 97,-470.1667 97,-473.3333 97,-473.3333 97,-479.6667 97,-479.6667 97,-482.8333 93.8333,-486 90.6667,-486"/>
<text text-anchor="middle" x="70" y="-474" font-family="Times,serif" font-size="10.00" fill="#ffffff">18:Relu</text>
</g>
<!-- Name : /block3/Add
Info : &#45;&gt;Name : /block3/gate_1/Relu
Info :  -->
<g id="edge22" class="edge">
<title>Name : /block3/Add
Info : &#45;&gt;Name : /block3/gate_1/Relu
Info : </title>
<path fill="none" stroke="#000000" stroke-width=".7" d="M70,-493.7524C70,-492.9971 70,-492.2248 70,-491.4461"/>
<polygon fill="#000000" stroke="#000000" stroke-width=".7" points="70,-486.324 72.2501,-491.324 70,-488.824 70.0001,-491.324 70.0001,-491.324 70.0001,-491.324 70,-488.824 67.7501,-491.324 70,-486.324 70,-486.324"/>
</g>
<!-- Name : /pool4_1_1/MaxPool
Info :  -->
<g id="node20" class="node">
<title>Name : /pool4_1_1/MaxPool
Info : </title>
<path fill="#375588" stroke="#000000" d="M94.6667,-459C94.6667,-459 33.3333,-459 33.3333,-459 30.1667,-459 27,-455.8333 27,-452.6667 27,-452.6667 27,-446.3333 27,-446.3333 27,-443.1667 30.1667,-440 33.3333,-440 33.3333,-440 94.6667,-440 94.6667,-440 97.8333,-440 101,-443.1667 101,-446.3333 101,-446.3333 101,-452.6667 101,-452.6667 101,-455.8333 97.8333,-459 94.6667,-459"/>
<text text-anchor="middle" x="64" y="-447" font-family="Times,serif" font-size="10.00" fill="#ffffff">19:MaxPool</text>
</g>
<!-- Name : /block3/gate_1/Relu
Info : &#45;&gt;Name : /pool4_1_1/MaxPool
Info :  -->
<g id="edge23" class="edge">
<title>Name : /block3/gate_1/Relu
Info : &#45;&gt;Name : /pool4_1_1/MaxPool
Info : </title>
<path fill="none" stroke="#000000" stroke-width=".7" d="M67.8339,-466.7524C67.666,-465.9971 67.4944,-465.2248 67.3214,-464.4461"/>
<polygon fill="#000000" stroke="#000000" stroke-width=".7" points="66.1831,-459.324 69.4643,-463.7168 66.7255,-461.7645 67.2678,-464.2049 67.2678,-464.2049 67.2678,-464.2049 66.7255,-461.7645 65.0714,-464.6931 66.1831,-459.324 66.1831,-459.324"/>
</g>
<!-- Name : /conv3/Conv
Info :  -->
<g id="node33" class="node">
<title>Name : /conv3/Conv
Info : </title>
<path fill="#375588" stroke="#000000" d="M162.6667,-432C162.6667,-432 119.3333,-432 119.3333,-432 116.1667,-432 113,-428.8333 113,-425.6667 113,-425.6667 113,-419.3333 113,-419.3333 113,-416.1667 116.1667,-413 119.3333,-413 119.3333,-413 162.6667,-413 162.6667,-413 165.8333,-413 169,-416.1667 169,-419.3333 169,-419.3333 169,-425.6667 169,-425.6667 169,-428.8333 165.8333,-432 162.6667,-432"/>
<text text-anchor="middle" x="141" y="-420" font-family="Times,serif" font-size="10.00" fill="#ffffff">32:Conv</text>
</g>
<!-- Name : /block3/gate_1/Relu
Info : &#45;&gt;Name : /conv3/Conv
Info :  -->
<g id="edge24" class="edge">
<title>Name : /block3/gate_1/Relu
Info : &#45;&gt;Name : /conv3/Conv
Info : </title>
<path fill="none" stroke="#000000" stroke-width=".7" d="M96.7615,-466.824C101.383,-464.5953 105.986,-461.9859 110,-459 118.2863,-452.8362 125.83,-444.0603 131.4007,-436.6585"/>
<polygon fill="#000000" stroke="#000000" stroke-width=".7" points="134.6033,-432.263 133.4774,-437.6291 133.1311,-434.2835 131.6589,-436.3041 131.6589,-436.3041 131.6589,-436.3041 133.1311,-434.2835 129.8404,-434.9791 134.6033,-432.263 134.6033,-432.263"/>
</g>
<!-- Name : /pool4_2_1/MaxPool
Info :  -->
<g id="node21" class="node">
<title>Name : /pool4_2_1/MaxPool
Info : </title>
<path fill="#375588" stroke="#000000" d="M88.6667,-432C88.6667,-432 27.3333,-432 27.3333,-432 24.1667,-432 21,-428.8333 21,-425.6667 21,-425.6667 21,-419.3333 21,-419.3333 21,-416.1667 24.1667,-413 27.3333,-413 27.3333,-413 88.6667,-413 88.6667,-413 91.8333,-413 95,-416.1667 95,-419.3333 95,-419.3333 95,-425.6667 95,-425.6667 95,-428.8333 91.8333,-432 88.6667,-432"/>
<text text-anchor="middle" x="58" y="-420" font-family="Times,serif" font-size="10.00" fill="#ffffff">20:MaxPool</text>
</g>
<!-- Name : /pool4_1_1/MaxPool
Info : &#45;&gt;Name : /pool4_2_1/MaxPool
Info :  -->
<g id="edge25" class="edge">
<title>Name : /pool4_1_1/MaxPool
Info : &#45;&gt;Name : /pool4_2_1/MaxPool
Info : </title>
<path fill="none" stroke="#000000" stroke-width=".7" d="M61.8339,-439.7524C61.666,-438.9971 61.4944,-438.2248 61.3214,-437.4461"/>
<polygon fill="#000000" stroke="#000000" stroke-width=".7" points="60.1831,-432.324 63.4643,-436.7168 60.7255,-434.7645 61.2678,-437.2049 61.2678,-437.2049 61.2678,-437.2049 60.7255,-434.7645 59.0714,-437.6931 60.1831,-432.324 60.1831,-432.324"/>
</g>
<!-- Name : /block4/downsample/Conv
Info :  -->
<g id="node22" class="node">
<title>Name : /block4/downsample/Conv
Info : </title>
<path fill="#375588" stroke="#000000" d="M65.6667,-351C65.6667,-351 22.3333,-351 22.3333,-351 19.1667,-351 16,-347.8333 16,-344.6667 16,-344.6667 16,-338.3333 16,-338.3333 16,-335.1667 19.1667,-332 22.3333,-332 22.3333,-332 65.6667,-332 65.6667,-332 68.8333,-332 72,-335.1667 72,-338.3333 72,-338.3333 72,-344.6667 72,-344.6667 72,-347.8333 68.8333,-351 65.6667,-351"/>
<text text-anchor="middle" x="44" y="-339" font-family="Times,serif" font-size="10.00" fill="#ffffff">21:Conv</text>
</g>
<!-- Name : /pool4_2_1/MaxPool
Info : &#45;&gt;Name : /block4/downsample/Conv
Info :  -->
<g id="edge26" class="edge">
<title>Name : /pool4_2_1/MaxPool
Info : &#45;&gt;Name : /block4/downsample/Conv
Info : </title>
<path fill="none" stroke="#000000" stroke-width=".7" d="M34.2961,-412.8433C31.3869,-410.6868 28.8073,-408.0956 27,-405 16.6922,-387.3443 19.3133,-377.9444 27,-359 27.5017,-357.7636 28.1372,-356.5666 28.8662,-355.4179"/>
<polygon fill="#000000" stroke="#000000" stroke-width=".7" points="32.0548,-351.2461 30.8061,-356.585 30.5366,-353.2324 29.0185,-355.2187 29.0185,-355.2187 29.0185,-355.2187 30.5366,-353.2324 27.2308,-353.8523 32.0548,-351.2461 32.0548,-351.2461"/>
</g>
<!-- Name : /block4/conv1/Conv
Info :  -->
<g id="node23" class="node">
<title>Name : /block4/conv1/Conv
Info : </title>
<path fill="#375588" stroke="#000000" d="M85.6667,-405C85.6667,-405 42.3333,-405 42.3333,-405 39.1667,-405 36,-401.8333 36,-398.6667 36,-398.6667 36,-392.3333 36,-392.3333 36,-389.1667 39.1667,-386 42.3333,-386 42.3333,-386 85.6667,-386 85.6667,-386 88.8333,-386 92,-389.1667 92,-392.3333 92,-392.3333 92,-398.6667 92,-398.6667 92,-401.8333 88.8333,-405 85.6667,-405"/>
<text text-anchor="middle" x="64" y="-393" font-family="Times,serif" font-size="10.00" fill="#ffffff">22:Conv</text>
</g>
<!-- Name : /pool4_2_1/MaxPool
Info : &#45;&gt;Name : /block4/conv1/Conv
Info :  -->
<g id="edge27" class="edge">
<title>Name : /pool4_2_1/MaxPool
Info : &#45;&gt;Name : /block4/conv1/Conv
Info : </title>
<path fill="none" stroke="#000000" stroke-width=".7" d="M60.1661,-412.7524C60.334,-411.9971 60.5056,-411.2248 60.6786,-410.4461"/>
<polygon fill="#000000" stroke="#000000" stroke-width=".7" points="61.8169,-405.324 62.9286,-410.6931 61.2745,-407.7645 60.7322,-410.2049 60.7322,-410.2049 60.7322,-410.2049 61.2745,-407.7645 58.5357,-409.7168 61.8169,-405.324 61.8169,-405.324"/>
</g>
<!-- Name : /block4/Add
Info :  -->
<g id="node26" class="node">
<title>Name : /block4/Add
Info : </title>
<path fill="#375588" stroke="#000000" d="M83.6667,-324C83.6667,-324 42.3333,-324 42.3333,-324 39.1667,-324 36,-320.8333 36,-317.6667 36,-317.6667 36,-311.3333 36,-311.3333 36,-308.1667 39.1667,-305 42.3333,-305 42.3333,-305 83.6667,-305 83.6667,-305 86.8333,-305 90,-308.1667 90,-311.3333 90,-311.3333 90,-317.6667 90,-317.6667 90,-320.8333 86.8333,-324 83.6667,-324"/>
<text text-anchor="middle" x="63" y="-312" font-family="Times,serif" font-size="10.00" fill="#ffffff">25:Add</text>
</g>
<!-- Name : /block4/downsample/Conv
Info : &#45;&gt;Name : /block4/Add
Info :  -->
<g id="edge28" class="edge">
<title>Name : /block4/downsample/Conv
Info : &#45;&gt;Name : /block4/Add
Info : </title>
<path fill="none" stroke="#000000" stroke-width=".7" d="M50.8594,-331.7524C51.6035,-330.695 52.371,-329.6043 53.1417,-328.5091"/>
<polygon fill="#000000" stroke="#000000" stroke-width=".7" points="56.0868,-324.324 55.0494,-329.7079 54.6481,-326.3685 53.2093,-328.413 53.2093,-328.413 53.2093,-328.413 54.6481,-326.3685 51.3692,-327.1182 56.0868,-324.324 56.0868,-324.324"/>
</g>
<!-- Name : /block4/gate/Relu
Info :  -->
<g id="node24" class="node">
<title>Name : /block4/gate/Relu
Info : </title>
<path fill="#375588" stroke="#000000" d="M83.6667,-378C83.6667,-378 42.3333,-378 42.3333,-378 39.1667,-378 36,-374.8333 36,-371.6667 36,-371.6667 36,-365.3333 36,-365.3333 36,-362.1667 39.1667,-359 42.3333,-359 42.3333,-359 83.6667,-359 83.6667,-359 86.8333,-359 90,-362.1667 90,-365.3333 90,-365.3333 90,-371.6667 90,-371.6667 90,-374.8333 86.8333,-378 83.6667,-378"/>
<text text-anchor="middle" x="63" y="-366" font-family="Times,serif" font-size="10.00" fill="#ffffff">23:Relu</text>
</g>
<!-- Name : /block4/conv1/Conv
Info : &#45;&gt;Name : /block4/gate/Relu
Info :  -->
<g id="edge29" class="edge">
<title>Name : /block4/conv1/Conv
Info : &#45;&gt;Name : /block4/gate/Relu
Info : </title>
<path fill="none" stroke="#000000" stroke-width=".7" d="M63.639,-385.7524C63.611,-384.9971 63.5824,-384.2248 63.5536,-383.4461"/>
<polygon fill="#000000" stroke="#000000" stroke-width=".7" points="63.3639,-378.324 65.7975,-383.2373 63.4564,-380.8223 63.549,-383.3206 63.549,-383.3206 63.549,-383.3206 63.4564,-380.8223 61.3005,-383.4039 63.3639,-378.324 63.3639,-378.324"/>
</g>
<!-- Name : /block4/conv2/Conv
Info :  -->
<g id="node25" class="node">
<title>Name : /block4/conv2/Conv
Info : </title>
<path fill="#375588" stroke="#000000" d="M139.6667,-351C139.6667,-351 96.3333,-351 96.3333,-351 93.1667,-351 90,-347.8333 90,-344.6667 90,-344.6667 90,-338.3333 90,-338.3333 90,-335.1667 93.1667,-332 96.3333,-332 96.3333,-332 139.6667,-332 139.6667,-332 142.8333,-332 146,-335.1667 146,-338.3333 146,-338.3333 146,-344.6667 146,-344.6667 146,-347.8333 142.8333,-351 139.6667,-351"/>
<text text-anchor="middle" x="118" y="-339" font-family="Times,serif" font-size="10.00" fill="#ffffff">24:Conv</text>
</g>
<!-- Name : /block4/gate/Relu
Info : &#45;&gt;Name : /block4/conv2/Conv
Info :  -->
<g id="edge30" class="edge">
<title>Name : /block4/gate/Relu
Info : &#45;&gt;Name : /block4/conv2/Conv
Info : </title>
<path fill="none" stroke="#000000" stroke-width=".7" d="M82.5458,-358.9048C86.193,-357.1143 90.0445,-355.2236 93.8119,-353.3742"/>
<polygon fill="#000000" stroke="#000000" stroke-width=".7" points="98.5171,-351.0643 95.0203,-355.2875 96.273,-352.166 94.0288,-353.2677 94.0288,-353.2677 94.0288,-353.2677 96.273,-352.166 93.0373,-351.248 98.5171,-351.0643 98.5171,-351.0643"/>
</g>
<!-- Name : /block4/conv2/Conv
Info : &#45;&gt;Name : /block4/Add
Info :  -->
<g id="edge31" class="edge">
<title>Name : /block4/conv2/Conv
Info : &#45;&gt;Name : /block4/Add
Info : </title>
<path fill="none" stroke="#000000" stroke-width=".7" d="M98.4542,-331.9048C94.807,-330.1143 90.9555,-328.2236 87.1881,-326.3742"/>
<polygon fill="#000000" stroke="#000000" stroke-width=".7" points="82.4829,-324.0643 87.9627,-324.248 84.727,-325.166 86.9712,-326.2677 86.9712,-326.2677 86.9712,-326.2677 84.727,-325.166 85.9797,-328.2875 82.4829,-324.0643 82.4829,-324.0643"/>
</g>
<!-- Name : /block4/gate_1/Relu
Info :  -->
<g id="node27" class="node">
<title>Name : /block4/gate_1/Relu
Info : </title>
<path fill="#375588" stroke="#000000" d="M94.6667,-297C94.6667,-297 53.3333,-297 53.3333,-297 50.1667,-297 47,-293.8333 47,-290.6667 47,-290.6667 47,-284.3333 47,-284.3333 47,-281.1667 50.1667,-278 53.3333,-278 53.3333,-278 94.6667,-278 94.6667,-278 97.8333,-278 101,-281.1667 101,-284.3333 101,-284.3333 101,-290.6667 101,-290.6667 101,-293.8333 97.8333,-297 94.6667,-297"/>
<text text-anchor="middle" x="74" y="-285" font-family="Times,serif" font-size="10.00" fill="#ffffff">26:Relu</text>
</g>
<!-- Name : /block4/Add
Info : &#45;&gt;Name : /block4/gate_1/Relu
Info :  -->
<g id="edge32" class="edge">
<title>Name : /block4/Add
Info : &#45;&gt;Name : /block4/gate_1/Relu
Info : </title>
<path fill="none" stroke="#000000" stroke-width=".7" d="M66.9713,-304.7524C67.3405,-303.8461 67.7197,-302.9153 68.1015,-301.9781"/>
<polygon fill="#000000" stroke="#000000" stroke-width=".7" points="69.9976,-297.324 70.1948,-302.8034 69.0544,-299.6392 68.1111,-301.9545 68.1111,-301.9545 68.1111,-301.9545 69.0544,-299.6392 66.0274,-301.1055 69.9976,-297.324 69.9976,-297.324"/>
</g>
<!-- Name : /conv4/Conv
Info :  -->
<g id="node28" class="node">
<title>Name : /conv4/Conv
Info : </title>
<path fill="#375588" stroke="#000000" d="M108.6667,-270C108.6667,-270 65.3333,-270 65.3333,-270 62.1667,-270 59,-266.8333 59,-263.6667 59,-263.6667 59,-257.3333 59,-257.3333 59,-254.1667 62.1667,-251 65.3333,-251 65.3333,-251 108.6667,-251 108.6667,-251 111.8333,-251 115,-254.1667 115,-257.3333 115,-257.3333 115,-263.6667 115,-263.6667 115,-266.8333 111.8333,-270 108.6667,-270"/>
<text text-anchor="middle" x="87" y="-258" font-family="Times,serif" font-size="10.00" fill="#ffffff">27:Conv</text>
</g>
<!-- Name : /block4/gate_1/Relu
Info : &#45;&gt;Name : /conv4/Conv
Info :  -->
<g id="edge33" class="edge">
<title>Name : /block4/gate_1/Relu
Info : &#45;&gt;Name : /conv4/Conv
Info : </title>
<path fill="none" stroke="#000000" stroke-width=".7" d="M78.6933,-277.7524C79.1297,-276.8461 79.5778,-275.9153 80.0291,-274.9781"/>
<polygon fill="#000000" stroke="#000000" stroke-width=".7" points="82.2699,-270.324 82.1281,-275.8051 81.1854,-272.5765 80.1008,-274.829 80.1008,-274.829 80.1008,-274.829 81.1854,-272.5765 78.0735,-273.8529 82.2699,-270.324 82.2699,-270.324"/>
</g>
<!-- Name : /gate_3/Relu
Info :  -->
<g id="node29" class="node">
<title>Name : /gate_3/Relu
Info : </title>
<path fill="#375588" stroke="#000000" d="M107.6667,-243C107.6667,-243 66.3333,-243 66.3333,-243 63.1667,-243 60,-239.8333 60,-236.6667 60,-236.6667 60,-230.3333 60,-230.3333 60,-227.1667 63.1667,-224 66.3333,-224 66.3333,-224 107.6667,-224 107.6667,-224 110.8333,-224 114,-227.1667 114,-230.3333 114,-230.3333 114,-236.6667 114,-236.6667 114,-239.8333 110.8333,-243 107.6667,-243"/>
<text text-anchor="middle" x="87" y="-231" font-family="Times,serif" font-size="10.00" fill="#ffffff">28:Relu</text>
</g>
<!-- Name : /conv4/Conv
Info : &#45;&gt;Name : /gate_3/Relu
Info :  -->
<g id="edge34" class="edge">
<title>Name : /conv4/Conv
Info : &#45;&gt;Name : /gate_3/Relu
Info : </title>
<path fill="none" stroke="#000000" stroke-width=".7" d="M87,-250.7524C87,-249.9971 87,-249.2248 87,-248.4461"/>
<polygon fill="#000000" stroke="#000000" stroke-width=".7" points="87,-243.324 89.2501,-248.324 87,-245.824 87.0001,-248.324 87.0001,-248.324 87.0001,-248.324 87,-245.824 84.7501,-248.324 87,-243.324 87,-243.324"/>
</g>
<!-- Name : /upsample2_2/Resize
Info : INFORMATION &#45;&#45; [TIDL_ResizeLayer] &#160;Any resize ratio which is power of 2 and greater than 4 will be placed by combination of 4x4 resize layer and 2x2 resize layer. For example a 8x8 resize will be replaced by 4x4 resize followed by 2x2 resize. -->
<g id="node30" class="node">
<title>Name : /upsample2_2/Resize
Info : INFORMATION &#45;&#45; [TIDL_ResizeLayer] &#160;Any resize ratio which is power of 2 and greater than 4 will be placed by combination of 4x4 resize layer and 2x2 resize layer. For example a 8x8 resize will be replaced by 4x4 resize followed by 2x2 resize.</title>
<path fill="#375588" stroke="#000000" d="M119.1667,-216C119.1667,-216 66.8333,-216 66.8333,-216 63.6667,-216 60.5,-212.8333 60.5,-209.6667 60.5,-209.6667 60.5,-203.3333 60.5,-203.3333 60.5,-200.1667 63.6667,-197 66.8333,-197 66.8333,-197 119.1667,-197 119.1667,-197 122.3333,-197 125.5,-200.1667 125.5,-203.3333 125.5,-203.3333 125.5,-209.6667 125.5,-209.6667 125.5,-212.8333 122.3333,-216 119.1667,-216"/>
<text text-anchor="middle" x="93" y="-204" font-family="Times,serif" font-size="10.00" fill="#ffffff">29:Resize</text>
</g>
<!-- Name : /gate_3/Relu
Info : &#45;&gt;Name : /upsample2_2/Resize
Info : INFORMATION &#45;&#45; [TIDL_ResizeLayer] &#160;Any resize ratio which is power of 2 and greater than 4 will be placed by combination of 4x4 resize layer and 2x2 resize layer. For example a 8x8 resize will be replaced by 4x4 resize followed by 2x2 resize. -->
<g id="edge35" class="edge">
<title>Name : /gate_3/Relu
Info : &#45;&gt;Name : /upsample2_2/Resize
Info : INFORMATION &#45;&#45; [TIDL_ResizeLayer] &#160;Any resize ratio which is power of 2 and greater than 4 will be placed by combination of 4x4 resize layer and 2x2 resize layer. For example a 8x8 resize will be replaced by 4x4 resize followed by 2x2 resize.</title>
<path fill="none" stroke="#000000" stroke-width=".7" d="M89.1661,-223.7524C89.334,-222.9971 89.5056,-222.2248 89.6786,-221.4461"/>
<polygon fill="#000000" stroke="#000000" stroke-width=".7" points="90.8169,-216.324 91.9286,-221.6931 90.2745,-218.7645 89.7322,-221.2049 89.7322,-221.2049 89.7322,-221.2049 90.2745,-218.7645 87.5357,-220.7168 90.8169,-216.324 90.8169,-216.324"/>
</g>
<!-- Name : /upsample4_1/Resize
Info : INFORMATION &#45;&#45; [TIDL_ResizeLayer] &#160;Any resize ratio which is power of 2 and greater than 4 will be placed by combination of 4x4 resize layer and 2x2 resize layer. For example a 8x8 resize will be replaced by 4x4 resize followed by 2x2 resize. -->
<g id="node31" class="node">
<title>Name : /upsample4_1/Resize
Info : INFORMATION &#45;&#45; [TIDL_ResizeLayer] &#160;Any resize ratio which is power of 2 and greater than 4 will be placed by combination of 4x4 resize layer and 2x2 resize layer. For example a 8x8 resize will be replaced by 4x4 resize followed by 2x2 resize.</title>
<path fill="#375588" stroke="#000000" d="M122.1667,-189C122.1667,-189 69.8333,-189 69.8333,-189 66.6667,-189 63.5,-185.8333 63.5,-182.6667 63.5,-182.6667 63.5,-176.3333 63.5,-176.3333 63.5,-173.1667 66.6667,-170 69.8333,-170 69.8333,-170 122.1667,-170 122.1667,-170 125.3333,-170 128.5,-173.1667 128.5,-176.3333 128.5,-176.3333 128.5,-182.6667 128.5,-182.6667 128.5,-185.8333 125.3333,-189 122.1667,-189"/>
<text text-anchor="middle" x="96" y="-177" font-family="Times,serif" font-size="10.00" fill="#ffffff">30:Resize</text>
</g>
<!-- Name : /upsample2_2/Resize
Info : INFORMATION &#45;&#45; [TIDL_ResizeLayer] &#160;Any resize ratio which is power of 2 and greater than 4 will be placed by combination of 4x4 resize layer and 2x2 resize layer. For example a 8x8 resize will be replaced by 4x4 resize followed by 2x2 resize.&#45;&gt;Name : /upsample4_1/Resize
Info : INFORMATION &#45;&#45; [TIDL_ResizeLayer] &#160;Any resize ratio which is power of 2 and greater than 4 will be placed by combination of 4x4 resize layer and 2x2 resize layer. For example a 8x8 resize will be replaced by 4x4 resize followed by 2x2 resize. -->
<g id="edge36" class="edge">
<title>Name : /upsample2_2/Resize
Info : INFORMATION &#45;&#45; [TIDL_ResizeLayer] &#160;Any resize ratio which is power of 2 and greater than 4 will be placed by combination of 4x4 resize layer and 2x2 resize layer. For example a 8x8 resize will be replaced by 4x4 resize followed by 2x2 resize.&#45;&gt;Name : /upsample4_1/Resize
Info : INFORMATION &#45;&#45; [TIDL_ResizeLayer] &#160;Any resize ratio which is power of 2 and greater than 4 will be placed by combination of 4x4 resize layer and 2x2 resize layer. For example a 8x8 resize will be replaced by 4x4 resize followed by 2x2 resize.</title>
<path fill="none" stroke="#000000" stroke-width=".7" d="M94.0831,-196.7524C94.167,-195.9971 94.2528,-195.2248 94.3393,-194.4461"/>
<polygon fill="#000000" stroke="#000000" stroke-width=".7" points="94.9084,-189.324 96.5924,-194.5419 94.6323,-191.8087 94.3562,-194.2934 94.3562,-194.2934 94.3562,-194.2934 94.6323,-191.8087 92.12,-194.0449 94.9084,-189.324 94.9084,-189.324"/>
</g>
<!-- Name : /upsample4_2/Resize
Info : INFORMATION &#45;&#45; [TIDL_ResizeLayer] &#160;Any resize ratio which is power of 2 and greater than 4 will be placed by combination of 4x4 resize layer and 2x2 resize layer. For example a 8x8 resize will be replaced by 4x4 resize followed by 2x2 resize. -->
<g id="node32" class="node">
<title>Name : /upsample4_2/Resize
Info : INFORMATION &#45;&#45; [TIDL_ResizeLayer] &#160;Any resize ratio which is power of 2 and greater than 4 will be placed by combination of 4x4 resize layer and 2x2 resize layer. For example a 8x8 resize will be replaced by 4x4 resize followed by 2x2 resize.</title>
<path fill="#375588" stroke="#000000" d="M123.1667,-162C123.1667,-162 70.8333,-162 70.8333,-162 67.6667,-162 64.5,-158.8333 64.5,-155.6667 64.5,-155.6667 64.5,-149.3333 64.5,-149.3333 64.5,-146.1667 67.6667,-143 70.8333,-143 70.8333,-143 123.1667,-143 123.1667,-143 126.3333,-143 129.5,-146.1667 129.5,-149.3333 129.5,-149.3333 129.5,-155.6667 129.5,-155.6667 129.5,-158.8333 126.3333,-162 123.1667,-162"/>
<text text-anchor="middle" x="97" y="-150" font-family="Times,serif" font-size="10.00" fill="#ffffff">31:Resize</text>
</g>
<!-- Name : /upsample4_1/Resize
Info : INFORMATION &#45;&#45; [TIDL_ResizeLayer] &#160;Any resize ratio which is power of 2 and greater than 4 will be placed by combination of 4x4 resize layer and 2x2 resize layer. For example a 8x8 resize will be replaced by 4x4 resize followed by 2x2 resize.&#45;&gt;Name : /upsample4_2/Resize
Info : INFORMATION &#45;&#45; [TIDL_ResizeLayer] &#160;Any resize ratio which is power of 2 and greater than 4 will be placed by combination of 4x4 resize layer and 2x2 resize layer. For example a 8x8 resize will be replaced by 4x4 resize followed by 2x2 resize. -->
<g id="edge37" class="edge">
<title>Name : /upsample4_1/Resize
Info : INFORMATION &#45;&#45; [TIDL_ResizeLayer] &#160;Any resize ratio which is power of 2 and greater than 4 will be placed by combination of 4x4 resize layer and 2x2 resize layer. For example a 8x8 resize will be replaced by 4x4 resize followed by 2x2 resize.&#45;&gt;Name : /upsample4_2/Resize
Info : INFORMATION &#45;&#45; [TIDL_ResizeLayer] &#160;Any resize ratio which is power of 2 and greater than 4 will be placed by combination of 4x4 resize layer and 2x2 resize layer. For example a 8x8 resize will be replaced by 4x4 resize followed by 2x2 resize.</title>
<path fill="none" stroke="#000000" stroke-width=".7" d="M96.361,-169.7524C96.389,-168.9971 96.4176,-168.2248 96.4464,-167.4461"/>
<polygon fill="#000000" stroke="#000000" stroke-width=".7" points="96.6361,-162.324 98.6995,-167.4039 96.5436,-164.8223 96.451,-167.3206 96.451,-167.3206 96.451,-167.3206 96.5436,-164.8223 94.2025,-167.2373 96.6361,-162.324 96.6361,-162.324"/>
</g>
<!-- Name : /Concat
Info :  -->
<g id="node42" class="node">
<title>Name : /Concat
Info : </title>
<path fill="#375588" stroke="#000000" d="M197.6667,-135C197.6667,-135 144.3333,-135 144.3333,-135 141.1667,-135 138,-131.8333 138,-128.6667 138,-128.6667 138,-122.3333 138,-122.3333 138,-119.1667 141.1667,-116 144.3333,-116 144.3333,-116 197.6667,-116 197.6667,-116 200.8333,-116 204,-119.1667 204,-122.3333 204,-122.3333 204,-128.6667 204,-128.6667 204,-131.8333 200.8333,-135 197.6667,-135"/>
<text text-anchor="middle" x="171" y="-123" font-family="Times,serif" font-size="10.00" fill="#ffffff">41:Concat</text>
</g>
<!-- Name : /upsample4_2/Resize
Info : INFORMATION &#45;&#45; [TIDL_ResizeLayer] &#160;Any resize ratio which is power of 2 and greater than 4 will be placed by combination of 4x4 resize layer and 2x2 resize layer. For example a 8x8 resize will be replaced by 4x4 resize followed by 2x2 resize.&#45;&gt;Name : /Concat
Info :  -->
<g id="edge38" class="edge">
<title>Name : /upsample4_2/Resize
Info : INFORMATION &#45;&#45; [TIDL_ResizeLayer] &#160;Any resize ratio which is power of 2 and greater than 4 will be placed by combination of 4x4 resize layer and 2x2 resize layer. For example a 8x8 resize will be replaced by 4x4 resize followed by 2x2 resize.&#45;&gt;Name : /Concat
Info : </title>
<path fill="none" stroke="#000000" stroke-width=".7" d="M123.298,-142.9048C128.6414,-140.9552 134.3106,-138.8867 139.8047,-136.8821"/>
<polygon fill="#000000" stroke="#000000" stroke-width=".7" points="144.7867,-135.0643 140.8608,-138.8919 142.4381,-135.9213 140.0896,-136.7782 140.0896,-136.7782 140.0896,-136.7782 142.4381,-135.9213 139.3183,-134.6645 144.7867,-135.0643 144.7867,-135.0643"/>
</g>
<!-- Name : /gate_2/Relu
Info :  -->
<g id="node34" class="node">
<title>Name : /gate_2/Relu
Info : </title>
<path fill="#375588" stroke="#000000" d="M161.6667,-405C161.6667,-405 120.3333,-405 120.3333,-405 117.1667,-405 114,-401.8333 114,-398.6667 114,-398.6667 114,-392.3333 114,-392.3333 114,-389.1667 117.1667,-386 120.3333,-386 120.3333,-386 161.6667,-386 161.6667,-386 164.8333,-386 168,-389.1667 168,-392.3333 168,-392.3333 168,-398.6667 168,-398.6667 168,-401.8333 164.8333,-405 161.6667,-405"/>
<text text-anchor="middle" x="141" y="-393" font-family="Times,serif" font-size="10.00" fill="#ffffff">33:Relu</text>
</g>
<!-- Name : /conv3/Conv
Info : &#45;&gt;Name : /gate_2/Relu
Info :  -->
<g id="edge39" class="edge">
<title>Name : /conv3/Conv
Info : &#45;&gt;Name : /gate_2/Relu
Info : </title>
<path fill="none" stroke="#000000" stroke-width=".7" d="M141,-412.7524C141,-411.9971 141,-411.2248 141,-410.4461"/>
<polygon fill="#000000" stroke="#000000" stroke-width=".7" points="141,-405.324 143.2501,-410.324 141,-407.824 141.0001,-410.324 141.0001,-410.324 141.0001,-410.324 141,-407.824 138.7501,-410.324 141,-405.324 141,-405.324"/>
</g>
<!-- Name : /upsample4/Resize
Info : INFORMATION &#45;&#45; [TIDL_ResizeLayer] &#160;Any resize ratio which is power of 2 and greater than 4 will be placed by combination of 4x4 resize layer and 2x2 resize layer. For example a 8x8 resize will be replaced by 4x4 resize followed by 2x2 resize. -->
<g id="node35" class="node">
<title>Name : /upsample4/Resize
Info : INFORMATION &#45;&#45; [TIDL_ResizeLayer] &#160;Any resize ratio which is power of 2 and greater than 4 will be placed by combination of 4x4 resize layer and 2x2 resize layer. For example a 8x8 resize will be replaced by 4x4 resize followed by 2x2 resize.</title>
<path fill="#375588" stroke="#000000" d="M167.1667,-378C167.1667,-378 114.8333,-378 114.8333,-378 111.6667,-378 108.5,-374.8333 108.5,-371.6667 108.5,-371.6667 108.5,-365.3333 108.5,-365.3333 108.5,-362.1667 111.6667,-359 114.8333,-359 114.8333,-359 167.1667,-359 167.1667,-359 170.3333,-359 173.5,-362.1667 173.5,-365.3333 173.5,-365.3333 173.5,-371.6667 173.5,-371.6667 173.5,-374.8333 170.3333,-378 167.1667,-378"/>
<text text-anchor="middle" x="141" y="-366" font-family="Times,serif" font-size="10.00" fill="#ffffff">34:Resize</text>
</g>
<!-- Name : /gate_2/Relu
Info : &#45;&gt;Name : /upsample4/Resize
Info : INFORMATION &#45;&#45; [TIDL_ResizeLayer] &#160;Any resize ratio which is power of 2 and greater than 4 will be placed by combination of 4x4 resize layer and 2x2 resize layer. For example a 8x8 resize will be replaced by 4x4 resize followed by 2x2 resize. -->
<g id="edge40" class="edge">
<title>Name : /gate_2/Relu
Info : &#45;&gt;Name : /upsample4/Resize
Info : INFORMATION &#45;&#45; [TIDL_ResizeLayer] &#160;Any resize ratio which is power of 2 and greater than 4 will be placed by combination of 4x4 resize layer and 2x2 resize layer. For example a 8x8 resize will be replaced by 4x4 resize followed by 2x2 resize.</title>
<path fill="none" stroke="#000000" stroke-width=".7" d="M141,-385.7524C141,-384.9971 141,-384.2248 141,-383.4461"/>
<polygon fill="#000000" stroke="#000000" stroke-width=".7" points="141,-378.324 143.2501,-383.324 141,-380.824 141.0001,-383.324 141.0001,-383.324 141.0001,-383.324 141,-380.824 138.7501,-383.324 141,-378.324 141,-378.324"/>
</g>
<!-- Name : /upsample2_1/Resize
Info : INFORMATION &#45;&#45; [TIDL_ResizeLayer] &#160;Any resize ratio which is power of 2 and greater than 4 will be placed by combination of 4x4 resize layer and 2x2 resize layer. For example a 8x8 resize will be replaced by 4x4 resize followed by 2x2 resize. -->
<g id="node36" class="node">
<title>Name : /upsample2_1/Resize
Info : INFORMATION &#45;&#45; [TIDL_ResizeLayer] &#160;Any resize ratio which is power of 2 and greater than 4 will be placed by combination of 4x4 resize layer and 2x2 resize layer. For example a 8x8 resize will be replaced by 4x4 resize followed by 2x2 resize.</title>
<path fill="#375588" stroke="#000000" d="M167.1667,-324C167.1667,-324 114.8333,-324 114.8333,-324 111.6667,-324 108.5,-320.8333 108.5,-317.6667 108.5,-317.6667 108.5,-311.3333 108.5,-311.3333 108.5,-308.1667 111.6667,-305 114.8333,-305 114.8333,-305 167.1667,-305 167.1667,-305 170.3333,-305 173.5,-308.1667 173.5,-311.3333 173.5,-311.3333 173.5,-317.6667 173.5,-317.6667 173.5,-320.8333 170.3333,-324 167.1667,-324"/>
<text text-anchor="middle" x="141" y="-312" font-family="Times,serif" font-size="10.00" fill="#ffffff">35:Resize</text>
</g>
<!-- Name : /upsample4/Resize
Info : INFORMATION &#45;&#45; [TIDL_ResizeLayer] &#160;Any resize ratio which is power of 2 and greater than 4 will be placed by combination of 4x4 resize layer and 2x2 resize layer. For example a 8x8 resize will be replaced by 4x4 resize followed by 2x2 resize.&#45;&gt;Name : /upsample2_1/Resize
Info : INFORMATION &#45;&#45; [TIDL_ResizeLayer] &#160;Any resize ratio which is power of 2 and greater than 4 will be placed by combination of 4x4 resize layer and 2x2 resize layer. For example a 8x8 resize will be replaced by 4x4 resize followed by 2x2 resize. -->
<g id="edge41" class="edge">
<title>Name : /upsample4/Resize
Info : INFORMATION &#45;&#45; [TIDL_ResizeLayer] &#160;Any resize ratio which is power of 2 and greater than 4 will be placed by combination of 4x4 resize layer and 2x2 resize layer. For example a 8x8 resize will be replaced by 4x4 resize followed by 2x2 resize.&#45;&gt;Name : /upsample2_1/Resize
Info : INFORMATION &#45;&#45; [TIDL_ResizeLayer] &#160;Any resize ratio which is power of 2 and greater than 4 will be placed by combination of 4x4 resize layer and 2x2 resize layer. For example a 8x8 resize will be replaced by 4x4 resize followed by 2x2 resize.</title>
<path fill="none" stroke="#000000" stroke-width=".7" d="M150.5793,-358.8498C152.3897,-356.4662 154.0212,-353.7903 155,-351 157.7952,-343.0316 157.7952,-339.9684 155,-332 154.5718,-330.7792 154.0186,-329.5804 153.3802,-328.4183"/>
<polygon fill="#000000" stroke="#000000" stroke-width=".7" points="150.5793,-324.1502 155.2037,-327.096 151.9509,-326.2404 153.3226,-328.3305 153.3226,-328.3305 153.3226,-328.3305 151.9509,-326.2404 151.4415,-329.565 150.5793,-324.1502 150.5793,-324.1502"/>
</g>
<!-- Name : /upsample2_1/Resize
Info : INFORMATION &#45;&#45; [TIDL_ResizeLayer] &#160;Any resize ratio which is power of 2 and greater than 4 will be placed by combination of 4x4 resize layer and 2x2 resize layer. For example a 8x8 resize will be replaced by 4x4 resize followed by 2x2 resize.&#45;&gt;Name : /Concat
Info :  -->
<g id="edge42" class="edge">
<title>Name : /upsample2_1/Resize
Info : INFORMATION &#45;&#45; [TIDL_ResizeLayer] &#160;Any resize ratio which is power of 2 and greater than 4 will be placed by combination of 4x4 resize layer and 2x2 resize layer. For example a 8x8 resize will be replaced by 4x4 resize followed by 2x2 resize.&#45;&gt;Name : /Concat
Info : </title>
<path fill="none" stroke="#000000" stroke-width=".7" d="M143.9462,-304.6486C146.896,-293.9003 151,-276.1364 151,-260.5 151,-260.5 151,-260.5 151,-179.5 151,-165.2819 157.1725,-150.1954 162.6594,-139.5935"/>
<polygon fill="#000000" stroke="#000000" stroke-width=".7" points="165.1075,-135.0572 164.7129,-140.5259 163.9202,-137.2573 162.7329,-139.4574 162.7329,-139.4574 162.7329,-139.4574 163.9202,-137.2573 160.7528,-138.3888 165.1075,-135.0572 165.1075,-135.0572"/>
</g>
<!-- Name : /gate_1/Relu
Info :  -->
<g id="node38" class="node">
<title>Name : /gate_1/Relu
Info : </title>
<path fill="#375588" stroke="#000000" d="M184.6667,-594C184.6667,-594 143.3333,-594 143.3333,-594 140.1667,-594 137,-590.8333 137,-587.6667 137,-587.6667 137,-581.3333 137,-581.3333 137,-578.1667 140.1667,-575 143.3333,-575 143.3333,-575 184.6667,-575 184.6667,-575 187.8333,-575 191,-578.1667 191,-581.3333 191,-581.3333 191,-587.6667 191,-587.6667 191,-590.8333 187.8333,-594 184.6667,-594"/>
<text text-anchor="middle" x="164" y="-582" font-family="Times,serif" font-size="10.00" fill="#ffffff">37:Relu</text>
</g>
<!-- Name : /conv2/Conv
Info : &#45;&gt;Name : /gate_1/Relu
Info :  -->
<g id="edge43" class="edge">
<title>Name : /conv2/Conv
Info : &#45;&gt;Name : /gate_1/Relu
Info : </title>
<path fill="none" stroke="#000000" stroke-width=".7" d="M164,-601.7524C164,-600.9971 164,-600.2248 164,-599.4461"/>
<polygon fill="#000000" stroke="#000000" stroke-width=".7" points="164,-594.324 166.2501,-599.324 164,-596.824 164.0001,-599.324 164.0001,-599.324 164.0001,-599.324 164,-596.824 161.7501,-599.324 164,-594.324 164,-594.324"/>
</g>
<!-- Name : /upsample2/Resize
Info : INFORMATION &#45;&#45; [TIDL_ResizeLayer] &#160;Any resize ratio which is power of 2 and greater than 4 will be placed by combination of 4x4 resize layer and 2x2 resize layer. For example a 8x8 resize will be replaced by 4x4 resize followed by 2x2 resize. -->
<g id="node39" class="node">
<title>Name : /upsample2/Resize
Info : INFORMATION &#45;&#45; [TIDL_ResizeLayer] &#160;Any resize ratio which is power of 2 and greater than 4 will be placed by combination of 4x4 resize layer and 2x2 resize layer. For example a 8x8 resize will be replaced by 4x4 resize followed by 2x2 resize.</title>
<path fill="#375588" stroke="#000000" d="M187.1667,-540C187.1667,-540 134.8333,-540 134.8333,-540 131.6667,-540 128.5,-536.8333 128.5,-533.6667 128.5,-533.6667 128.5,-527.3333 128.5,-527.3333 128.5,-524.1667 131.6667,-521 134.8333,-521 134.8333,-521 187.1667,-521 187.1667,-521 190.3333,-521 193.5,-524.1667 193.5,-527.3333 193.5,-527.3333 193.5,-533.6667 193.5,-533.6667 193.5,-536.8333 190.3333,-540 187.1667,-540"/>
<text text-anchor="middle" x="161" y="-528" font-family="Times,serif" font-size="10.00" fill="#ffffff">38:Resize</text>
</g>
<!-- Name : /gate_1/Relu
Info : &#45;&gt;Name : /upsample2/Resize
Info : INFORMATION &#45;&#45; [TIDL_ResizeLayer] &#160;Any resize ratio which is power of 2 and greater than 4 will be placed by combination of 4x4 resize layer and 2x2 resize layer. For example a 8x8 resize will be replaced by 4x4 resize followed by 2x2 resize. -->
<g id="edge44" class="edge">
<title>Name : /gate_1/Relu
Info : &#45;&gt;Name : /upsample2/Resize
Info : INFORMATION &#45;&#45; [TIDL_ResizeLayer] &#160;Any resize ratio which is power of 2 and greater than 4 will be placed by combination of 4x4 resize layer and 2x2 resize layer. For example a 8x8 resize will be replaced by 4x4 resize followed by 2x2 resize.</title>
<path fill="none" stroke="#000000" stroke-width=".7" d="M163.4498,-574.5956C162.9973,-566.4507 162.3489,-554.7801 161.8328,-545.491"/>
<polygon fill="#000000" stroke="#000000" stroke-width=".7" points="161.5468,-540.3416 164.0707,-545.2091 161.6855,-542.8378 161.8242,-545.3339 161.8242,-545.3339 161.8242,-545.3339 161.6855,-542.8378 159.5777,-545.4588 161.5468,-540.3416 161.5468,-540.3416"/>
</g>
<!-- Name : /upsample2/Resize
Info : INFORMATION &#45;&#45; [TIDL_ResizeLayer] &#160;Any resize ratio which is power of 2 and greater than 4 will be placed by combination of 4x4 resize layer and 2x2 resize layer. For example a 8x8 resize will be replaced by 4x4 resize followed by 2x2 resize.&#45;&gt;Name : /Concat
Info :  -->
<g id="edge45" class="edge">
<title>Name : /upsample2/Resize
Info : INFORMATION &#45;&#45; [TIDL_ResizeLayer] &#160;Any resize ratio which is power of 2 and greater than 4 will be placed by combination of 4x4 resize layer and 2x2 resize layer. For example a 8x8 resize will be replaced by 4x4 resize followed by 2x2 resize.&#45;&gt;Name : /Concat
Info : </title>
<path fill="none" stroke="#000000" stroke-width=".7" d="M171.125,-520.7699C180.5,-510.6707 193,-493.9359 193,-476.5 193,-476.5 193,-476.5 193,-179.5 193,-165.2785 186.3748,-150.4037 180.3958,-139.8754"/>
<polygon fill="#000000" stroke="#000000" stroke-width=".7" points="177.7203,-135.3619 182.2054,-138.5157 178.9951,-137.5125 180.2699,-139.663 180.2699,-139.663 180.2699,-139.663 178.9951,-137.5125 178.3344,-140.8104 177.7203,-135.3619 177.7203,-135.3619"/>
</g>
<!-- Name : /gate/Relu
Info :  -->
<g id="node41" class="node">
<title>Name : /gate/Relu
Info : </title>
<path fill="#375588" stroke="#000000" d="M206.6667,-729C206.6667,-729 165.3333,-729 165.3333,-729 162.1667,-729 159,-725.8333 159,-722.6667 159,-722.6667 159,-716.3333 159,-716.3333 159,-713.1667 162.1667,-710 165.3333,-710 165.3333,-710 206.6667,-710 206.6667,-710 209.8333,-710 213,-713.1667 213,-716.3333 213,-716.3333 213,-722.6667 213,-722.6667 213,-725.8333 209.8333,-729 206.6667,-729"/>
<text text-anchor="middle" x="186" y="-717" font-family="Times,serif" font-size="10.00" fill="#ffffff">40:Relu</text>
</g>
<!-- Name : /conv1/Conv
Info : &#45;&gt;Name : /gate/Relu
Info :  -->
<g id="edge46" class="edge">
<title>Name : /conv1/Conv
Info : &#45;&gt;Name : /gate/Relu
Info : </title>
<path fill="none" stroke="#000000" stroke-width=".7" d="M186,-763.5956C186,-755.4507 186,-743.7801 186,-734.491"/>
<polygon fill="#000000" stroke="#000000" stroke-width=".7" points="186,-729.3416 188.2501,-734.3416 186,-731.8416 186.0001,-734.3416 186.0001,-734.3416 186.0001,-734.3416 186,-731.8416 183.7501,-734.3417 186,-729.3416 186,-729.3416"/>
</g>
<!-- Name : /gate/Relu
Info : &#45;&gt;Name : /Concat
Info :  -->
<g id="edge47" class="edge">
<title>Name : /gate/Relu
Info : &#45;&gt;Name : /Concat
Info : </title>
<path fill="none" stroke="#000000" stroke-width=".7" d="M194.2476,-709.8729C202.1878,-699.5942 213,-682.4801 213,-665.5 213,-665.5 213,-665.5 213,-179.5 213,-162.9986 200.6289,-148.503 189.3149,-138.6964"/>
<polygon fill="#000000" stroke="#000000" stroke-width=".7" points="185.2193,-135.3006 190.5045,-136.7599 187.1438,-136.8963 189.0683,-138.492 189.0683,-138.492 189.0683,-138.492 187.1438,-136.8963 187.6322,-140.224 185.2193,-135.3006 185.2193,-135.3006"/>
</g>
<!-- Name : /convhead2/Conv
Info :  -->
<g id="node43" class="node">
<title>Name : /convhead2/Conv
Info : </title>
<path fill="#375588" stroke="#000000" d="M192.6667,-108C192.6667,-108 149.3333,-108 149.3333,-108 146.1667,-108 143,-104.8333 143,-101.6667 143,-101.6667 143,-95.3333 143,-95.3333 143,-92.1667 146.1667,-89 149.3333,-89 149.3333,-89 192.6667,-89 192.6667,-89 195.8333,-89 199,-92.1667 199,-95.3333 199,-95.3333 199,-101.6667 199,-101.6667 199,-104.8333 195.8333,-108 192.6667,-108"/>
<text text-anchor="middle" x="171" y="-96" font-family="Times,serif" font-size="10.00" fill="#ffffff">42:Conv</text>
</g>
<!-- Name : /Concat
Info : &#45;&gt;Name : /convhead2/Conv
Info :  -->
<g id="edge48" class="edge">
<title>Name : /Concat
Info : &#45;&gt;Name : /convhead2/Conv
Info : </title>
<path fill="none" stroke="#000000" stroke-width=".7" d="M171,-115.7524C171,-114.9971 171,-114.2248 171,-113.4461"/>
<polygon fill="#000000" stroke="#000000" stroke-width=".7" points="171,-108.324 173.2501,-113.324 171,-110.824 171.0001,-113.324 171.0001,-113.324 171.0001,-113.324 171,-110.824 168.7501,-113.324 171,-108.324 171,-108.324"/>
</g>
<!-- Name : /Slice_1
Info :  -->
<g id="node44" class="node">
<title>Name : /Slice_1
Info : </title>
<path fill="#375588" stroke="#000000" d="M133.6667,-81C133.6667,-81 90.3333,-81 90.3333,-81 87.1667,-81 84,-77.8333 84,-74.6667 84,-74.6667 84,-68.3333 84,-68.3333 84,-65.1667 87.1667,-62 90.3333,-62 90.3333,-62 133.6667,-62 133.6667,-62 136.8333,-62 140,-65.1667 140,-68.3333 140,-68.3333 140,-74.6667 140,-74.6667 140,-77.8333 136.8333,-81 133.6667,-81"/>
<text text-anchor="middle" x="112" y="-69" font-family="Times,serif" font-size="10.00" fill="#ffffff">43:Slice</text>
</g>
<!-- Name : /convhead2/Conv
Info : &#45;&gt;Name : /Slice_1
Info :  -->
<g id="edge49" class="edge">
<title>Name : /convhead2/Conv
Info : &#45;&gt;Name : /Slice_1
Info : </title>
<path fill="none" stroke="#000000" stroke-width=".7" d="M150.0327,-88.9048C146.0332,-87.0745 141.8049,-85.1395 137.678,-83.2509"/>
<polygon fill="#000000" stroke="#000000" stroke-width=".7" points="132.8998,-81.0643 138.3826,-81.099 135.1731,-82.1047 137.4463,-83.145 137.4463,-83.145 137.4463,-83.145 135.1731,-82.1047 136.51,-85.1909 132.8998,-81.0643 132.8998,-81.0643"/>
</g>
<!-- Name : /Slice
Info :  -->
<g id="node46" class="node">
<title>Name : /Slice
Info : </title>
<path fill="#375588" stroke="#000000" d="M207.6667,-81C207.6667,-81 164.3333,-81 164.3333,-81 161.1667,-81 158,-77.8333 158,-74.6667 158,-74.6667 158,-68.3333 158,-68.3333 158,-65.1667 161.1667,-62 164.3333,-62 164.3333,-62 207.6667,-62 207.6667,-62 210.8333,-62 214,-65.1667 214,-68.3333 214,-68.3333 214,-74.6667 214,-74.6667 214,-77.8333 210.8333,-81 207.6667,-81"/>
<text text-anchor="middle" x="186" y="-69" font-family="Times,serif" font-size="10.00" fill="#ffffff">45:Slice</text>
</g>
<!-- Name : /convhead2/Conv
Info : &#45;&gt;Name : /Slice
Info :  -->
<g id="edge50" class="edge">
<title>Name : /convhead2/Conv
Info : &#45;&gt;Name : /Slice
Info : </title>
<path fill="none" stroke="#000000" stroke-width=".7" d="M176.4153,-88.7524C176.9188,-87.8461 177.436,-86.9153 177.9566,-85.9781"/>
<polygon fill="#000000" stroke="#000000" stroke-width=".7" points="180.5422,-81.324 180.0808,-86.7875 179.3281,-83.5094 178.114,-85.6948 178.114,-85.6948 178.114,-85.6948 179.3281,-83.5094 176.1471,-84.6021 180.5422,-81.324 180.5422,-81.324"/>
</g>
<!-- Name : /Sigmoid
Info :  -->
<g id="node45" class="node">
<title>Name : /Sigmoid
Info : </title>
<path fill="#375588" stroke="#000000" d="M141.1667,-54C141.1667,-54 82.8333,-54 82.8333,-54 79.6667,-54 76.5,-50.8333 76.5,-47.6667 76.5,-47.6667 76.5,-41.3333 76.5,-41.3333 76.5,-38.1667 79.6667,-35 82.8333,-35 82.8333,-35 141.1667,-35 141.1667,-35 144.3333,-35 147.5,-38.1667 147.5,-41.3333 147.5,-41.3333 147.5,-47.6667 147.5,-47.6667 147.5,-50.8333 144.3333,-54 141.1667,-54"/>
<text text-anchor="middle" x="112" y="-42" font-family="Times,serif" font-size="10.00" fill="#ffffff">44:Sigmoid</text>
</g>
<!-- Name : /Slice_1
Info : &#45;&gt;Name : /Sigmoid
Info :  -->
<g id="edge51" class="edge">
<title>Name : /Slice_1
Info : &#45;&gt;Name : /Sigmoid
Info : </title>
<path fill="none" stroke="#000000" stroke-width=".7" d="M112,-61.7524C112,-60.9971 112,-60.2248 112,-59.4461"/>
<polygon fill="#000000" stroke="#000000" stroke-width=".7" points="112,-54.324 114.2501,-59.324 112,-56.824 112.0001,-59.324 112.0001,-59.324 112.0001,-59.324 112,-56.824 109.7501,-59.324 112,-54.324 112,-54.324"/>
</g>
<!-- Output : 44 -->
<g id="node48" class="node">
<title>Output : 44</title>
<path fill="#000000" stroke="#000000" d="M132.6667,-19C132.6667,-19 91.3333,-19 91.3333,-19 88.1667,-19 85,-15.8333 85,-12.6667 85,-12.6667 85,-6.3333 85,-6.3333 85,-3.1667 88.1667,0 91.3333,0 91.3333,0 132.6667,0 132.6667,0 135.8333,0 139,-3.1667 139,-6.3333 139,-6.3333 139,-12.6667 139,-12.6667 139,-15.8333 135.8333,-19 132.6667,-19"/>
<text text-anchor="middle" x="112" y="-7" font-family="Times,serif" font-size="10.00" fill="#ffffff">Output</text>
</g>
<!-- Name : /Sigmoid
Info : &#45;&gt;Output : 44 -->
<g id="edge53" class="edge">
<title>Name : /Sigmoid
Info : &#45;&gt;Output : 44</title>
<path fill="none" stroke="#000000" stroke-width=".7" d="M112,-34.9361C112,-31.7483 112,-28.1148 112,-24.6114"/>
<polygon fill="#000000" stroke="#000000" stroke-width=".7" points="112,-19.296 114.2501,-24.2959 112,-21.796 112.0001,-24.296 112.0001,-24.296 112.0001,-24.296 112,-21.796 109.7501,-24.296 112,-19.296 112,-19.296"/>
</g>
<!-- Output : 45 -->
<g id="node49" class="node">
<title>Output : 45</title>
<path fill="#000000" stroke="#000000" d="M277.6667,-54C277.6667,-54 236.3333,-54 236.3333,-54 233.1667,-54 230,-50.8333 230,-47.6667 230,-47.6667 230,-41.3333 230,-41.3333 230,-38.1667 233.1667,-35 236.3333,-35 236.3333,-35 277.6667,-35 277.6667,-35 280.8333,-35 284,-38.1667 284,-41.3333 284,-41.3333 284,-47.6667 284,-47.6667 284,-50.8333 280.8333,-54 277.6667,-54"/>
<text text-anchor="middle" x="257" y="-42" font-family="Times,serif" font-size="10.00" fill="#ffffff">Output</text>
</g>
<!-- Name : /Slice
Info : &#45;&gt;Output : 45 -->
<g id="edge54" class="edge">
<title>Name : /Slice
Info : &#45;&gt;Output : 45</title>
<path fill="none" stroke="#000000" stroke-width=".7" d="M211.2319,-61.9048C216.3586,-59.9552 221.798,-57.8867 227.0694,-55.8821"/>
<polygon fill="#000000" stroke="#000000" stroke-width=".7" points="231.8494,-54.0643 227.9757,-57.9447 229.5127,-54.953 227.1759,-55.8416 227.1759,-55.8416 227.1759,-55.8416 229.5127,-54.953 226.3761,-53.7385 231.8494,-54.0643 231.8494,-54.0643"/>
</g>
<!-- Input : 0 -->
<g id="node47" class="node">
<title>Input : 0</title>
<path fill="#000000" stroke="#000000" d="M164.6667,-953C164.6667,-953 123.3333,-953 123.3333,-953 120.1667,-953 117,-949.8333 117,-946.6667 117,-946.6667 117,-940.3333 117,-940.3333 117,-937.1667 120.1667,-934 123.3333,-934 123.3333,-934 164.6667,-934 164.6667,-934 167.8333,-934 171,-937.1667 171,-940.3333 171,-940.3333 171,-946.6667 171,-946.6667 171,-949.8333 167.8333,-953 164.6667,-953"/>
<text text-anchor="middle" x="144" y="-941" font-family="Times,serif" font-size="10.00" fill="#ffffff">Input</text>
</g>
<!-- Input : 0&#45;&gt;Name : /block1/conv1/Conv
Info :  -->
<g id="edge52" class="edge">
<title>Input : 0&#45;&gt;Name : /block1/conv1/Conv
Info : </title>
<path fill="none" stroke="#000000" stroke-width=".7" d="M144,-933.9361C144,-930.7483 144,-927.1148 144,-923.6114"/>
<polygon fill="#000000" stroke="#000000" stroke-width=".7" points="144,-918.296 146.2501,-923.2959 144,-920.796 144.0001,-923.296 144.0001,-923.296 144.0001,-923.296 144,-920.796 141.7501,-923.296 144,-918.296 144,-918.296"/>
</g>
</g>
</svg>
